<svg width="213" height="86" viewBox="0 0 213 86" fill="none" xmlns="http://www.w3.org/2000/svg">
<g clip-path="url(#clip0_4729_6797)">
<path d="M10.2841 61.2755C11.0098 61.1002 11.7356 61.0204 12.4779 61.0204C13.5005 61.0204 14.6551 61.3233 15.8922 61.945C17.1623 62.5667 18.317 63.3637 19.3066 64.336L19.719 64.7346L23.7272 60.4625L23.4303 60.1118C22.0282 58.454 20.2303 57.2426 18.086 56.4774C13.7974 54.9472 10.0861 55.0428 6.82019 56.3977C5.13774 57.0991 3.75219 58.1034 2.71303 59.3786C1.64087 60.6857 1.11305 62.2638 1.11305 64.0651C1.11305 66.2011 1.67386 67.9386 2.779 69.1979C3.85116 70.4412 5.23671 71.3976 6.85318 72.0512C8.40368 72.6888 10.0202 73.2308 11.6696 73.6771C12.7253 73.9162 13.6985 74.2031 14.5892 74.506C15.4139 74.7929 16.0737 75.1436 16.552 75.59C16.9809 75.9725 17.1953 76.5145 17.1953 77.2318C17.1953 77.9969 16.9974 78.5867 16.585 79.0012C16.1397 79.4635 15.6118 79.7982 14.985 79.9895C14.3417 80.1967 13.682 80.3083 13.0387 80.3083C11.2737 80.3083 9.75624 80.0054 8.55213 79.4156C7.33153 78.8258 6.22638 77.981 5.2697 76.913L4.90681 76.5145L0.172852 80.4518L0.502744 80.8503C2.02025 82.7312 3.88415 84.0702 6.04494 84.8354C8.17275 85.6005 10.35 85.9831 12.5438 85.9831C14.4077 85.9831 16.2056 85.6324 17.8881 84.931C19.587 84.2296 21.0056 83.2095 22.0777 81.8705C23.1829 80.5155 23.7437 78.8737 23.7437 76.9927C23.7437 74.8248 23.2159 73.0873 22.1932 71.8599C21.187 70.6644 19.9004 69.7398 18.3664 69.1022C16.8984 68.4965 15.3644 67.9864 13.7974 67.5879C12.082 67.1734 10.6469 66.6793 9.49232 66.1692C8.50264 65.7229 8.0243 64.9737 7.99131 63.8897C7.99131 63.0927 8.18925 62.5188 8.60161 62.1363C9.06346 61.7218 9.60779 61.4349 10.2841 61.2755Z" fill="white"/>
<path d="M51.2241 57.3232C48.8818 56.0161 46.2427 55.3625 43.3561 55.3625C40.4695 55.3625 37.8139 56.0161 35.4552 57.3232C33.0964 58.6303 31.216 60.4475 29.847 62.7429C28.4779 65.0384 27.7852 67.7004 27.7852 70.6813C27.7852 73.6462 28.4779 76.3242 29.847 78.6196C31.216 80.915 33.0964 82.7322 35.4552 84.0393C37.8139 85.3464 40.4695 86 43.3561 86C46.2427 86 48.8983 85.3305 51.2241 84.0393C53.5663 82.7322 55.4302 80.915 56.7992 78.6196C58.1683 76.3242 58.8611 73.6621 58.8611 70.6813C58.8611 67.7164 58.1683 65.0384 56.7992 62.7429C55.4467 60.4475 53.5663 58.6303 51.2241 57.3232ZM51.8838 70.6653V70.6813C51.9168 72.4507 51.5539 74.0606 50.7952 75.4315C50.0364 76.8024 48.9973 77.8863 47.7107 78.6674C46.4241 79.4326 44.9561 79.8311 43.3561 79.8311C41.7561 79.8311 40.2716 79.4326 38.9685 78.6674C37.6655 77.8863 36.6098 76.8024 35.8675 75.4315C35.1088 74.0606 34.7459 72.4666 34.7789 70.6653C34.7459 68.8481 35.1088 67.2381 35.8675 65.8673C36.6263 64.4964 37.6655 63.4284 38.9685 62.6632C40.2716 61.8981 41.7561 61.5155 43.3561 61.5155C44.9726 61.5155 46.4241 61.8981 47.7272 62.6632C49.0138 63.4284 50.0529 64.4964 50.8117 65.8673C51.5539 67.2381 51.9168 68.8481 51.8838 70.6653Z" fill="white"/>
<path d="M71.4813 44.2986H64.603V85.4566H71.4813V44.2986Z" fill="white"/>
<path d="M100.428 58.7247C99.5539 57.9595 98.4818 57.2581 97.2282 56.6365C95.4633 55.7757 93.4509 55.3294 91.2901 55.3294C88.585 55.3294 86.1108 55.9989 83.9335 57.306C81.7727 58.6131 80.0243 60.4462 78.7542 62.7416C77.4841 65.0371 76.8408 67.6991 76.8408 70.664C76.8408 73.597 77.4841 76.2431 78.7542 78.5545C80.0243 80.8659 81.7892 82.699 83.9995 84.0061C86.2098 85.3132 88.7169 85.9827 91.4715 85.9827C93.6818 85.9827 95.7107 85.4726 97.4756 84.4684C98.6632 83.7989 99.6529 83.0816 100.445 82.3164V85.4407H107.323V44.2986H100.445V58.7247H100.428ZM99.5869 65.7863C100.296 67.2049 100.659 68.8468 100.659 70.68C100.659 72.4653 100.296 74.1071 99.5869 75.5418C98.8776 76.9605 97.888 78.0922 96.6344 78.9052C95.3808 79.7022 93.9128 80.1167 92.2303 80.1167C90.5973 80.1167 89.1293 79.7181 87.8922 78.9052C86.6386 78.0922 85.6325 76.9605 84.9232 75.5418C84.1974 74.1071 83.8345 72.4812 83.8345 70.68C83.8345 68.8627 84.1974 67.2209 84.9232 65.8022C85.6325 64.3994 86.6386 63.2677 87.8922 62.4707C89.1458 61.6736 90.5973 61.2592 92.2303 61.2592C93.8963 61.2592 95.3808 61.6736 96.6344 62.4707C97.888 63.2517 98.8776 64.3835 99.5869 65.7863Z" fill="white"/>
<path d="M136.369 57.3232C134.026 56.0161 131.387 55.3625 128.501 55.3625C125.614 55.3625 122.958 56.032 120.6 57.3232C118.241 58.6303 116.361 60.4475 114.992 62.7429C113.622 65.0384 112.93 67.7004 112.93 70.6813C112.93 73.6462 113.622 76.3242 114.992 78.6196C116.361 80.915 118.257 82.7322 120.6 84.0393C122.958 85.3464 125.614 86 128.501 86C131.387 86 134.043 85.3305 136.369 84.0393C138.711 82.7322 140.591 80.915 141.944 78.6196C143.313 76.3242 144.006 73.6621 144.006 70.6813C144.006 67.7164 143.313 65.0384 141.944 62.7429C140.575 60.4475 138.694 58.6303 136.369 57.3232ZM137.012 70.6653V70.6813C137.045 72.4666 136.682 74.0606 135.923 75.4315C135.164 76.8024 134.125 77.8863 132.839 78.6674C131.552 79.4485 130.084 79.8311 128.484 79.8311C126.868 79.8311 125.4 79.4326 124.097 78.6674C122.793 77.8863 121.738 76.8024 120.996 75.4315C120.237 74.0606 119.874 72.4666 119.907 70.6653C119.874 68.8481 120.237 67.2381 120.996 65.8673C121.738 64.4964 122.793 63.4284 124.097 62.6632C125.4 61.8981 126.884 61.5155 128.484 61.5155C130.084 61.5155 131.569 61.8981 132.855 62.6632C134.142 63.4284 135.181 64.4964 135.94 65.8673C136.682 67.2381 137.045 68.8481 137.012 70.6653Z" fill="white"/>
<path d="M171.654 75.2359L171.225 75.746C170.401 76.7183 169.312 77.6588 167.976 78.5674C166.689 79.4441 165.155 79.8745 163.423 79.8745C161.889 79.8745 160.438 79.476 159.085 78.679C157.733 77.882 156.628 76.7821 155.803 75.3953C154.978 74.0244 154.566 72.4304 154.566 70.661C154.566 68.8756 154.962 67.2816 155.737 65.9107C156.512 64.5399 157.568 63.44 158.904 62.6429C161.345 61.1764 164.446 60.8895 167.728 62.7067C169.23 63.5515 170.417 64.5558 171.225 65.7035L171.638 66.2933L175.547 61.6546L175.349 61.3358C174.26 59.5664 172.578 58.0999 170.368 56.9841C168.174 55.8842 165.634 55.3263 162.83 55.3263C160.042 55.3263 157.502 56.0117 155.259 57.3507C153.015 58.6897 151.234 60.5388 149.931 62.8342C148.644 65.1296 147.984 67.7439 147.984 70.645C147.984 73.4984 148.644 76.1285 149.931 78.424C151.217 80.7353 153.015 82.5844 155.259 83.9393C157.502 85.2943 160.058 85.9638 162.83 85.9638C164.594 85.9638 166.31 85.6928 167.943 85.1508C169.559 84.6088 171.011 83.8915 172.281 83.0307C173.551 82.154 174.59 81.1816 175.333 80.1615L175.58 79.8267L171.654 75.2359Z" fill="white"/>
<path d="M200.586 48.9372V44.2986H193.691V49.5111C193.691 56.7161 199.728 62.5502 207.184 62.5502H212.577V55.8872H207.777C203.802 55.8872 200.586 52.7788 200.586 48.9372Z" fill="#F07C34"/>
<path d="M192.695 55.8243H181.709V62.4874H193.701V74.0443H200.596V63.4757C197.082 61.9295 194.278 59.2037 192.695 55.8243Z" fill="white"/>
<path d="M16.6016 17.0664V18.3555H0.703125V17.0664H7.85156V12.8281H2.57812V4.68359H14.6289V12.8281H9.35547V17.0664H16.6016ZM4.08203 11.5977H13.1445V5.91406H4.08203V11.5977ZM33.8281 11.9883V13.2383H17.9883V11.9883H33.8281ZM20 10.0742V3.98047H31.8555V5.23047H21.5234V8.80469H32.0117V10.0742H20ZM20.0391 20.1914V15.1133H21.5625V18.9023H32.1484V20.1914H20.0391ZM46.543 6.94922C46.5527 9.29297 48.3984 11.4023 50.9961 12.2227L50.2148 13.4531C48.1934 12.7598 46.5918 11.334 45.8008 9.50781C45.0488 11.4805 43.418 13.043 41.3477 13.8047L40.5469 12.5742C43.1543 11.666 44.9902 9.41016 45 6.94922V5.93359H40.9375V4.68359H50.5469V5.93359H46.543V6.94922ZM43.418 20.2109V14.7617H44.9414V18.9219H55.1758V20.2109H43.418ZM53.1055 15.9727V3.23828H54.6289V15.9727H53.1055ZM73.4766 17.1445V18.4336H57.5781V17.1445H62.0508V13.8438H59.5703V8.49219H69.9609V5.77734H59.5312V4.50781H71.4648V9.76172H61.0938V12.5742H71.875V13.8438H69.1602V17.1445H73.4766ZM63.5547 17.1445H67.6562V13.8438H63.5547V17.1445ZM80.5469 4.48828C83.2715 4.49805 85.2051 6.1582 85.2148 8.57031C85.2051 10.9922 83.2715 12.6426 80.5469 12.6523C77.8027 12.6426 75.8496 10.9922 75.8594 8.57031C75.8496 6.1582 77.8027 4.49805 80.5469 4.48828ZM74.9609 15.4844C78.1641 15.4941 82.5879 15.4648 86.4258 14.8984L86.543 16.0312C82.5684 16.7734 78.3008 16.793 75.1758 16.793L74.9609 15.4844ZM77.3633 8.57031C77.3535 10.1914 78.6914 11.3047 80.5469 11.3047C82.3828 11.3047 83.7207 10.1914 83.7109 8.57031C83.7207 6.95898 82.3828 5.83594 80.5469 5.83594C78.6914 5.83594 77.3535 6.95898 77.3633 8.57031ZM87.5781 20.6211V3.21875H89.1016V20.6211H87.5781ZM103.34 7.88672C103.33 11.0605 105.488 14.2441 108.047 15.4062L107.109 16.6172C105.127 15.6602 103.418 13.5996 102.588 11.1289C101.787 13.7461 100.078 15.9434 98.0469 16.9688L97.0703 15.6797C99.6582 14.498 101.797 11.1777 101.816 7.88672V4.72266H103.34V7.88672ZM109.941 20.6211V3.21875H111.484V20.6211H109.941ZM120.332 6.44141C120.342 8.75586 122.041 10.8652 124.609 11.7539L123.828 12.9453C121.846 12.2422 120.332 10.8262 119.59 9.0293C118.848 11.002 117.256 12.5352 115.215 13.2773L114.395 12.0859C116.992 11.168 118.809 8.93164 118.828 6.44141V5.69922H114.863V4.44922H124.238V5.69922H120.332V6.44141ZM116.66 15.8555V14.6055H128.027V20.582H126.504V15.8555H116.66ZM126.504 13.6875V3.21875H128.027V7.80859H130.645V9.11719H128.027V13.6875H126.504ZM134.59 17.6914L133.066 23.0039H131.621L132.695 17.6914H134.59Z" fill="white"/>
</g>
<defs>
<clipPath id="clip0_4729_6797">
<rect width="213" height="86" fill="white"/>
</clipPath>
</defs>
</svg>
